# xmcd
#
# Track frame offsets: 
#        150
#        13441
#        25975
#        38017
#        50924
#        62969
#        76460
#        90682
#        104045
#
# Disc length: 1624 seconds
#
# Revision: 0
# Processed by: cddbd v1.5.2PL0 Copyright (c) Steve Scherf et al.
# Submitted via: ExactAudioCopy v0.99pb4
#
DISCID=7e065609
DTITLE=Glen Campbell - Gentle On My Mind
DYEAR=1984
DGENRE=Pop Country
TTITLE0=Gentle On My Mind
TTITLE1=Cold, Cold Heart
TTITLE2=It's Over
TTITLE3=(I Never Promised You a) Rose Garden
TTITLE4=Homeward Bound
TTITLE5=Southern Nights
TTITLE6=She Thinks I Still Care
TTITLE7=Honey, Come Back
TTITLE8=The Last Thing On My Mind
EXTD=
EXTT0=
EXTT1=
EXTT2=
EXTT3=
EXTT4=
EXTT5=
EXTT6=
EXTT7=
EXTT8=
PLAYORDER=
